<svg width="827" height="827" viewBox="0 0 827 827" fill="none" xmlns="http://www.w3.org/2000/svg">
<g clip-path="url(#clip0_6121_169)">
<path d="M0 0H827V827H0V0Z" fill="#F0F3FA"/>
<path d="M413.497 177.214C366.78 177.236 321.118 191.106 282.281 217.07C243.444 243.035 213.175 279.93 195.3 323.092C177.426 366.254 172.747 413.746 181.855 459.567C190.963 505.387 213.449 547.48 246.472 580.524L201.43 625.566C199.44 627.549 198.085 630.078 197.535 632.833C196.985 635.588 197.266 638.444 198.341 641.039C199.417 643.633 201.24 645.85 203.578 647.408C205.916 648.965 208.663 649.793 211.472 649.786H413.497C476.164 649.786 536.264 624.891 580.576 580.579C624.888 536.267 649.782 476.167 649.782 413.5C649.782 350.833 624.888 290.733 580.576 246.421C536.264 202.109 476.164 177.214 413.497 177.214Z" fill="#FF4500"/>
<path d="M539.025 457.804C545.812 457.804 552.534 456.467 558.805 453.869C565.076 451.272 570.773 447.464 575.573 442.665C580.373 437.865 584.18 432.167 586.778 425.896C589.375 419.625 590.712 412.904 590.712 406.116C590.712 399.328 589.375 392.607 586.778 386.336C584.18 380.065 580.373 374.367 575.573 369.567C570.773 364.768 565.076 360.961 558.805 358.363C552.534 355.766 545.812 354.429 539.025 354.429C525.316 354.429 512.169 359.874 502.476 369.567C492.783 379.261 487.337 392.408 487.337 406.116C487.337 419.824 492.783 432.971 502.476 442.665C512.169 452.358 525.316 457.804 539.025 457.804ZM273.203 457.804C279.991 457.804 286.712 456.467 292.983 453.869C299.254 451.272 304.952 447.464 309.752 442.665C314.551 437.865 318.359 432.167 320.956 425.896C323.554 419.625 324.891 412.904 324.891 406.116C324.891 399.328 323.554 392.607 320.956 386.336C318.359 380.065 314.551 374.367 309.752 369.567C304.952 364.768 299.254 360.961 292.983 358.363C286.712 355.766 279.991 354.429 273.203 354.429C259.495 354.429 246.348 359.874 236.655 369.567C226.961 379.261 221.516 392.408 221.516 406.116C221.516 419.824 226.961 432.971 236.655 442.665C246.348 452.358 259.495 457.804 273.203 457.804Z" fill="#FFEBEF"/>
<path d="M413.501 575.946C503.29 575.946 575.948 523.077 575.948 457.804C575.948 392.53 503.29 339.661 413.501 339.661C323.713 339.661 251.055 392.53 251.055 457.804C251.055 523.077 323.713 575.946 413.501 575.946Z" fill="url(#paint0_linear_6121_169)"/>
<path d="M367.126 447.466C366.092 467.255 352.801 474.491 337.442 474.491C321.936 474.491 310.122 463.711 311.008 443.774C312.041 423.985 325.185 410.989 340.691 410.989C356.197 410.989 368.012 427.529 367.126 447.318V447.466ZM460.163 447.466C461.197 467.255 474.34 474.491 489.846 474.491C505.353 474.491 517.167 463.711 516.281 443.774C515.247 423.985 501.956 410.989 486.598 410.989C471.091 410.989 459.277 427.529 460.163 447.318V447.466Z" fill="#FF4500"/>
<path d="M351.476 438.605C354.873 438.605 357.531 435.504 357.531 431.812C357.531 428.12 354.873 425.167 351.476 425.167C348.079 425.167 345.273 428.12 345.273 431.812C345.273 435.504 348.079 438.458 351.476 438.458V438.605ZM497.087 438.605C500.484 438.605 503.29 435.504 503.29 431.812C503.29 428.12 500.484 425.167 497.087 425.167C493.69 425.167 491.032 428.12 491.032 431.812C491.032 435.504 493.69 438.458 497.087 438.458V438.605Z" fill="#FFC49C"/>
<path d="M413.502 487.339C394.157 487.339 375.549 488.225 358.418 489.85C355.465 490.145 353.693 492.803 354.726 495.462C360.036 506.483 368.396 515.75 378.814 522.163C389.232 528.576 401.271 531.866 413.502 531.643C425.734 531.866 437.773 528.576 448.191 522.163C458.609 515.75 466.969 506.483 472.279 495.462C473.312 492.951 471.54 490.145 468.587 489.85C451.456 488.225 432.848 487.339 413.502 487.339Z" fill="#0C181C"/>
<path d="M494.724 324.893C504.516 324.893 513.907 321.003 520.83 314.079C527.754 307.156 531.644 297.765 531.644 287.973C531.644 278.182 527.754 268.791 520.83 261.867C513.907 254.943 504.516 251.054 494.724 251.054C484.933 251.054 475.542 254.943 468.618 261.867C461.694 268.791 457.805 278.182 457.805 287.973C457.805 297.765 461.694 307.156 468.618 314.079C475.542 321.003 484.933 324.893 494.724 324.893Z" fill="url(#paint1_linear_6121_169)"/>
<path d="M413.058 349.112C408.333 349.112 404.641 347.192 404.641 344.091C404.641 327.249 411.331 311.097 423.24 299.189C435.149 287.28 451.301 280.589 468.142 280.589C470.395 280.589 472.554 281.484 474.147 283.076C475.739 284.669 476.634 286.829 476.634 289.081C476.634 291.333 475.739 293.493 474.147 295.085C472.554 296.678 470.395 297.572 468.142 297.572C455.817 297.611 444.007 302.525 435.292 311.24C426.576 319.956 421.663 331.766 421.624 344.091C421.624 347.045 417.784 349.112 413.058 349.112Z" fill="#0C181C"/>
<path d="M314.553 445.546C315.439 426.791 327.844 414.534 342.465 414.534C356.051 414.534 366.684 428.563 367.127 445.989C367.422 426.496 355.903 410.989 340.692 410.989C325.629 410.989 312.043 424.281 311.157 444.217C310.123 464.154 321.937 474.491 337.444 474.491H338.477C324.448 474.048 313.815 464.006 314.701 445.546H314.553ZM512.59 445.546C511.704 426.791 499.299 414.534 484.827 414.534C471.093 414.534 460.607 428.563 460.164 445.989C459.721 426.496 471.388 410.989 486.599 410.989C501.957 410.989 515.249 424.281 516.135 444.217C517.168 464.154 505.354 474.491 489.848 474.491H488.666C502.844 474.048 513.476 464.006 512.59 445.546Z" fill="#842123"/>
</g>
<defs>
<linearGradient id="paint0_linear_6121_169" x1="365.949" y1="353.542" x2="365.949" y2="612.718" gradientUnits="userSpaceOnUse">
<stop offset="0.4" stop-color="#FEFFFF"/>
<stop offset="0.51" stop-color="#F9FCFC"/>
<stop offset="0.62" stop-color="#EDF3F5"/>
<stop offset="0.7" stop-color="#DEE9EC"/>
<stop offset="0.72" stop-color="#D8E4E8"/>
<stop offset="0.76" stop-color="#CCD8DF"/>
<stop offset="0.8" stop-color="#C8D5DD"/>
<stop offset="0.83" stop-color="#CCD6DE"/>
<stop offset="0.88" stop-color="#EDE3E9"/>
</linearGradient>
<linearGradient id="paint1_linear_6121_169" x1="428.86" y1="251.054" x2="428.86" y2="349.703" gradientUnits="userSpaceOnUse">
<stop offset="0.4" stop-color="#FEFFFF"/>
<stop offset="0.51" stop-color="#F9FCFC"/>
<stop offset="0.62" stop-color="#EDF3F5"/>
<stop offset="0.7" stop-color="#DEE9EC"/>
<stop offset="0.83" stop-color="#CCD6DE"/>
</linearGradient>
<clipPath id="clip0_6121_169">
<rect width="827" height="827" fill="white"/>
</clipPath>
</defs>
</svg>
